<svg id="visual" viewBox="0 0 900 600" width="900" height="600" xmlns="http://www.w3.org/2000/svg" xmlns:xlink="http://www.w3.org/1999/xlink" version="1.1"><path d="M99 0L99 4.3C99 8.7 99 17.3 98.2 26C97.3 34.7 95.7 43.3 93.5 52C91.3 60.7 88.7 69.3 89 78C89.3 86.7 92.7 95.3 94.2 104C95.7 112.7 95.3 121.3 93.3 130.2C91.3 139 87.7 148 87.7 156.8C87.7 165.7 91.3 174.3 92.5 183C93.7 191.7 92.3 200.3 90.7 209C89 217.7 87 226.3 87.2 235C87.3 243.7 89.7 252.3 90.3 261C91 269.7 90 278.3 89.3 287C88.7 295.7 88.3 304.3 87.5 313C86.7 321.7 85.3 330.3 85.8 339C86.3 347.7 88.7 356.3 90.7 365C92.7 373.7 94.3 382.3 93 391C91.7 399.7 87.3 408.3 87 417C86.7 425.7 90.3 434.3 92.8 443.2C95.3 452 96.7 461 95.5 469.8C94.3 478.7 90.7 487.3 90.5 496C90.3 504.7 93.7 513.3 94.3 522C95 530.7 93 539.3 93 548C93 556.7 95 565.3 95.2 574C95.3 582.7 93.7 591.3 92.8 595.7L92 600L0 600L0 595.7C0 591.3 0 582.7 0 574C0 565.3 0 556.7 0 548C0 539.3 0 530.7 0 522C0 513.3 0 504.7 0 496C0 487.3 0 478.7 0 469.8C0 461 0 452 0 443.2C0 434.3 0 425.7 0 417C0 408.3 0 399.7 0 391C0 382.3 0 373.7 0 365C0 356.3 0 347.7 0 339C0 330.3 0 321.7 0 313C0 304.3 0 295.7 0 287C0 278.3 0 269.7 0 261C0 252.3 0 243.7 0 235C0 226.3 0 217.7 0 209C0 200.3 0 191.7 0 183C0 174.3 0 165.7 0 156.8C0 148 0 139 0 130.2C0 121.3 0 112.7 0 104C0 95.3 0 86.7 0 78C0 69.3 0 60.7 0 52C0 43.3 0 34.7 0 26C0 17.3 0 8.7 0 4.3L0 0Z" fill="#715dbb" stroke-linecap="round" stroke-linejoin="miter"></path></svg>